<?xml version="1.0" encoding="utf-8"?>
<!-- Generator: Adobe Illustrator 19.0.0, SVG Export Plug-In . SVG Version: 6.00 Build 0)  -->
<svg version="1.1" id="Layer_1" xmlns="http://www.w3.org/2000/svg" xmlns:xlink="http://www.w3.org/1999/xlink" x="0px" y="0px"
	 viewBox="-27 -156.6 512 512" style="enable-background:new -27 -156.6 512 512;" xml:space="preserve">
<style type="text/css">
	.st0{fill:#DFEEFF;}
	.st1{fill:#334681;}
</style>
<rect x="138.2" y="206.1" class="st0" width="181.7" height="75.7"/>
<path class="st1" d="M334.4-22.6c0-8.1-6.5-14.6-14.6-14.6H138.1c-8.1,0-14.6,6.5-14.6,14.6v75.7c0,0.1,0,0.1,0,0.2
	c0,0.1,0,0.1,0,0.2v75.7c0,0.2,0,0.4,0,0.6c0,0.2,0,0.4,0,0.6v75.7v75.7c0,8.1,6.5,14.6,14.6,14.6h181.7c8.1,0,14.6-6.5,14.6-14.6
	v-75.7v-75.7c0-0.2,0-0.4,0-0.6c0-0.2,0-0.4,0-0.6V53.5c0-0.1,0-0.1,0-0.2c0-0.1,0-0.1,0-0.2L334.4-22.6L334.4-22.6L334.4-22.6z
	 M152.7,145h105.4c8.1,0,14.6-6.5,14.6-14.6c0-8.1-6.5-14.6-14.6-14.6H152.7V68.1h152.5v61.1c0,0.2,0,0.4,0,0.6c0,0.2,0,0.4,0,0.6
	v61.1H152.7V145z M152.7-8h152.5v46.5H152.7V-8z M305.3,267.1H152.7v-46.5h152.5L305.3,267.1L305.3,267.1z"/>
<rect x="152.4" y="-142" class="st0" width="153.3" height="60.7"/>
<path class="st1" d="M378.2-8c8.1,0,14.6-6.5,14.6-14.6v-59.1c0-8.1-6.5-14.6-14.6-14.6h-58V-142c0-8.1-6.5-14.6-14.6-14.6H152.4
	c-8.1,0-14.6,6.5-14.6,14.6v45.7h-58c-8.1,0-14.6,6.5-14.6,14.6v422.5c0,8.1,6.5,14.6,14.6,14.6h298.5c8.1,0,14.6-6.5,14.6-14.6
	V53.5c0-8.1-6.5-14.6-14.6-14.6s-14.6,6.5-14.6,14.6v272.7H94.4V-67.1h54.8c1,0.2,2.1,0.4,3.2,0.4h153.3c1.1,0,2.2-0.1,3.2-0.4h54.8
	v44.5C363.6-14.5,370.2-8,378.2-8z M167-127.4H291v31.1H167V-127.4z"/>
</svg>
